<?xml version="1.0" encoding="utf-8"?>
<!-- Generator: Adobe Illustrator 26.3.1, SVG Export Plug-In . SVG Version: 6.00 Build 0)  -->
<svg version="1.1" id="Layer_1" xmlns="http://www.w3.org/2000/svg" xmlns:xlink="http://www.w3.org/1999/xlink" x="0px" y="0px"
	 viewBox="0 0 512 512" style="enable-background:new 0 0 512 512;" xml:space="preserve">
<style type="text/css">
	.st0{fill:#009294;}
	.st1{display:none;}
	.st2{display:inline;}
	.st3{fill:#B93A4D;}
	.st4{fill:url(#SVGID_1_);}
</style>
<g>
	<g>
		<g>
			<path class="st0" d="M177.1,252.5h-6.8c-0.9,0-1.2-0.5-0.9-1.6l16.5-57.7c0.3-1.1,1.1-1.6,2.3-1.6h9.5c1.3,0,2,0.5,2.3,1.6
				l16.5,57.7c0.3,1.1-0.1,1.6-1,1.6h-6.7c-0.6,0-1-0.1-1.2-0.3c-0.2-0.2-0.4-0.6-0.5-1.3l-3.6-12.3h-20.8l-3.6,12.3
				C178.5,252,178,252.5,177.1,252.5z M192.6,200.7l-8.3,30.3h17.2l-8.4-30.3H192.6z"/>
		</g>
		<g>
			<path class="st0" d="M235,252.5h-6c-1.1,0-1.6-0.5-1.6-1.6v-57.7c0-1.1,0.5-1.6,1.6-1.6h22.2c4.6,0,8.2,1.3,10.8,3.9
				c2.6,2.6,3.9,6.2,3.9,10.8v8c0,7.3-3,11.8-9,13.7v0.4l10.5,22.2c0.7,1.3,0.3,1.9-1.2,1.9h-5.9c-1.5,0-2.5-0.5-2.9-1.6l-10.1-21.8
				h-9.6c-0.8,0-1.1,0.3-1.1,0.9v20.8C236.6,252,236.1,252.5,235,252.5z M237.7,221.5h12c4.7,0,7-2.3,7-6.9v-8c0-4.7-2.3-7-7-7h-12
				c-0.7,0-1,0.3-1,0.9v20C236.6,221.2,237,221.5,237.7,221.5z"/>
		</g>
		<g>
			<path class="st0" d="M303.9,252.5h-11c-4.7,0-8.3-1.3-10.8-3.9c-2.6-2.6-3.8-6.2-3.8-10.8v-31.6c0-4.7,1.3-8.3,3.8-10.8
				c2.6-2.6,6.2-3.8,10.8-3.8h11c4.7,0,8.3,1.3,10.9,3.8c2.6,2.6,3.9,6.2,3.9,10.8v31.6c0,4.6-1.3,8.2-3.9,10.8
				C312.2,251.2,308.6,252.5,303.9,252.5z M294.2,244.4h8.2c4.6,0,6.9-2.3,6.9-7v-30.8c0-4.7-2.3-7-6.9-7h-8.2c-4.5,0-6.8,2.3-6.8,7
				v30.8C287.4,242.1,289.7,244.4,294.2,244.4z"/>
		</g>
		<g>
			<path class="st0" d="M373.2,191.6h10.6c1.1,0,1.6,0.5,1.6,1.6v57.7c0,1.1-0.5,1.6-1.6,1.6h-5.9c-1.1,0-1.6-0.5-1.6-1.6V203h-0.4
				l-12.3,34.7c-0.4,1-1.1,1.5-2.1,1.5h-6.1c-0.9,0-1.6-0.5-2-1.5l-12.6-34.8h-0.4v47.9c0,0.6-0.1,1.1-0.3,1.3
				c-0.2,0.2-0.6,0.3-1.3,0.3h-5.8c-1.1,0-1.6-0.5-1.6-1.6v-57.7c0-1.1,0.5-1.6,1.6-1.6h10.6c0.7,0,1.2,0.3,1.5,1l13,36.6h0.5
				l13.1-36.6C371.9,191.9,372.4,191.6,373.2,191.6z"/>
		</g>
		<g>
			<path class="st0" d="M423.9,252.5h-11c-4.7,0-8.3-1.3-10.8-3.9c-2.6-2.6-3.8-6.2-3.8-10.8v-31.6c0-4.7,1.3-8.3,3.8-10.8
				c2.6-2.6,6.2-3.8,10.8-3.8h11c4.7,0,8.3,1.3,10.9,3.8c2.6,2.6,3.9,6.2,3.9,10.8v31.6c0,4.6-1.3,8.2-3.9,10.8
				C432.2,251.2,428.6,252.5,423.9,252.5z M414.3,244.4h8.2c4.6,0,6.9-2.3,6.9-7v-30.8c0-4.7-2.3-7-6.9-7h-8.2c-4.5,0-6.8,2.3-6.8,7
				v30.8C407.4,242.1,409.7,244.4,414.3,244.4z"/>
		</g>
	</g>
	<g class="st1">
		<g class="st2">
			<path class="st3" d="M171.4,324H170c-0.5,0-0.8-0.3-0.8-0.9v-60.3c0-0.6,0.3-0.9,0.8-0.9h1.4c0.5,0,0.8,0.3,0.8,0.9v27.4
				c0,0.5,0.3,0.8,0.9,0.8h29.9c0.6,0,0.9-0.3,0.9-0.8v-27.4c0-0.6,0.3-0.9,0.8-0.9h1.4c0.5,0,0.8,0.3,0.8,0.9v60.3
				c0,0.6-0.3,0.9-0.8,0.9h-1.4c-0.5,0-0.8-0.3-0.8-0.9v-28.7c0-0.5-0.3-0.8-0.9-0.8H173c-0.6,0-0.9,0.3-0.9,0.8v28.7
				C172.1,323.7,171.9,324,171.4,324z"/>
		</g>
		<g class="st2">
			<path class="st3" d="M251.8,324h-29.3c-0.5,0-0.8-0.3-0.8-0.9v-60.3c0-0.6,0.3-0.9,0.8-0.9h29.3c0.6,0,0.9,0.3,0.9,0.8v1.2
				c0,0.5-0.3,0.8-0.9,0.8h-26.3c-0.6,0-0.9,0.3-0.9,0.8v24.8c0,0.5,0.3,0.8,0.9,0.8h23.8c0.6,0,0.9,0.3,0.9,0.8v1.2
				c0,0.5-0.3,0.8-0.9,0.8h-23.8c-0.6,0-0.9,0.3-0.9,0.8v26.1c0,0.5,0.3,0.8,0.9,0.8h26.3c0.6,0,0.9,0.3,0.9,0.8v1.2
				C252.7,323.8,252.4,324,251.8,324z"/>
		</g>
		<g class="st2">
			<path class="st3" d="M266.1,324h-1.4c-0.6,0-0.8-0.3-0.6-0.9l20.3-60.3c0.2-0.6,0.5-0.9,1-0.9h2.3c0.4,0,0.8,0.3,1,0.9l20.3,60.3
				c0.2,0.6,0,0.9-0.6,0.9h-1.4c-0.5,0-0.8-0.3-1-0.9l-5.9-16.8h-27l-5.9,16.8C266.9,323.7,266.5,324,266.1,324z M286.3,265.7
				l-12.3,37.8H299l-12.3-37.8H286.3z"/>
		</g>
		<g class="st2">
			<path class="st3" d="M352.4,324H322c-0.5,0-0.8-0.3-0.8-0.9v-60.3c0-0.6,0.3-0.9,0.8-0.9h1.4c0.5,0,0.8,0.3,0.8,0.9v57.5
				c0,0.5,0.3,0.8,0.9,0.8h27.4c0.6,0,0.9,0.3,0.9,0.8v1.4C353.3,323.8,353,324,352.4,324z"/>
		</g>
		<g class="st2">
			<path class="st3" d="M372.1,324h-1.4c-0.5,0-0.8-0.3-0.8-0.9v-57.7c0-0.5-0.3-0.8-0.9-0.8h-14.9c-0.6,0-0.9-0.3-0.9-0.8v-1.2
				c0-0.5,0.3-0.8,0.9-0.8h34.4c0.6,0,0.9,0.3,0.9,0.8v1.2c0,0.5-0.3,0.8-0.9,0.8h-14.9c-0.6,0-0.9,0.3-0.9,0.8v57.7
				C372.8,323.7,372.6,324,372.1,324z"/>
		</g>
		<g class="st2">
			<path class="st3" d="M403.4,324H402c-0.5,0-0.8-0.3-0.8-0.9v-60.3c0-0.6,0.3-0.9,0.8-0.9h1.4c0.5,0,0.8,0.3,0.8,0.9v27.4
				c0,0.5,0.3,0.8,0.9,0.8h29.9c0.6,0,0.9-0.3,0.9-0.8v-27.4c0-0.6,0.3-0.9,0.8-0.9h1.4c0.5,0,0.8,0.3,0.8,0.9v60.3
				c0,0.6-0.3,0.9-0.8,0.9h-1.4c-0.5,0-0.8-0.3-0.8-0.9v-28.7c0-0.5-0.3-0.8-0.9-0.8H405c-0.6,0-0.9,0.3-0.9,0.8v28.7
				C404.2,323.7,403.9,324,403.4,324z"/>
		</g>
	</g>
	<linearGradient id="SVGID_1_" gradientUnits="userSpaceOnUse" x1="64.2131" y1="112.3043" x2="382.2296" y2="381.751">
		<stop  offset="0" style="stop-color:#F15362"/>
		<stop  offset="1" style="stop-color:#B93A4D"/>
	</linearGradient>
	<path class="st4" d="M237.4,390.2l-1,0.6c-0.2,0.1-0.5,0.1-0.8,0l-44.2-25.5c0,0,0,0,0,0l-70.4-40.6c-0.2-0.1-0.4-0.4-0.4-0.7
		V191.6c0-0.3,0.1-0.5,0.4-0.7l11.9-6.9l102.7-59.3c0.2-0.1,0.5-0.1,0.8,0l99.1,57.2h32.1c-0.1-0.2-0.2-0.3-0.3-0.4L236.3,106
		c-0.2-0.1-0.5-0.1-0.8,0l-115,66.4l-15.9,9.2c-0.2,0.1-0.4,0.4-0.4,0.7v151.1c0,0.3,0.1,0.5,0.4,0.7l130.9,75.6
		c0.1,0.1,0.3,0.1,0.4,0.1c0.1,0,0.3,0,0.4-0.1L367.2,334c0.2-0.1,0.3-0.2,0.3-0.4h-32.1l-54.9,31.7c0,0,0,0,0,0L237.4,390.2"/>
	<g>
		<rect x="104.3" y="153.1" class="st0" width="16.3" height="78.3"/>
		
			<rect x="104.3" y="153.1" transform="matrix(6.123234e-17 -1 1 6.123234e-17 -79.7874 304.6629)" class="st0" width="16.3" height="78.3"/>
	</g>
	<g>
		<path class="st0" d="M176.6,321.4h-5.8c-1,0-1.6-0.5-1.6-1.6v-56.3c0-1,0.5-1.6,1.6-1.6h5.8c1,0,1.6,0.5,1.6,1.6v23.1
			c0,0.6,0.4,0.9,1.1,0.9h19.5c0.6,0,0.9-0.3,0.9-0.9v-23.1c0-1,0.5-1.6,1.6-1.6h5.9c1,0,1.6,0.5,1.6,1.6v56.3c0,1-0.5,1.6-1.6,1.6
			h-5.9c-1,0-1.6-0.5-1.6-1.6v-23.4c0-0.6-0.3-0.9-0.9-0.9h-19.5c-0.7,0-1.1,0.3-1.1,0.9v23.4C178.2,320.9,177.7,321.4,176.6,321.4z
			"/>
		<path class="st0" d="M253.5,321.4h-29.6c-1,0-1.6-0.5-1.6-1.6v-56.3c0-1,0.5-1.6,1.6-1.6h29.6c1,0,1.5,0.5,1.5,1.6v4.7
			c0,1-0.5,1.6-1.5,1.6h-21.1c-0.7,0-1.1,0.3-1.1,0.9v15.6c0,0.6,0.4,0.9,1.1,0.9h17.8c1.1,0,1.7,0.5,1.7,1.6v4.7
			c0,1.1-0.6,1.6-1.7,1.6h-17.8c-0.7,0-1.1,0.3-1.1,0.9v16.5c0,0.7,0.4,1,1.1,1h21.1c1,0,1.5,0.5,1.5,1.6v4.7
			C255,320.9,254.5,321.4,253.5,321.4z"/>
		<path class="st0" d="M269.9,321.4h-6.7c-0.9,0-1.2-0.5-0.9-1.6l16.1-56.3c0.3-1,1-1.6,2.2-1.6h9.2c1.2,0,2,0.5,2.2,1.6l16.1,56.3
			c0.2,1-0.1,1.6-1,1.6h-6.6c-0.6,0-0.9-0.1-1.2-0.3c-0.2-0.2-0.4-0.6-0.5-1.2l-3.5-12h-20.3l-3.5,12
			C271.4,320.9,270.8,321.4,269.9,321.4z M285.1,270.9l-8.1,29.6h16.7l-8.2-29.6H285.1z"/>
		<path class="st0" d="M348.9,321.4h-30c-1,0-1.6-0.5-1.6-1.6v-56.3c0-1,0.5-1.6,1.6-1.6h5.8c1,0,1.6,0.5,1.6,1.6v48.9
			c0,0.6,0.4,0.9,1.1,0.9h21.5c1,0,1.6,0.6,1.6,1.7v4.8C350.5,320.9,350,321.4,348.9,321.4z"/>
		<path class="st0" d="M375.3,321.4h-5.8c-1.1,0-1.7-0.5-1.7-1.6v-49.1c0-0.6-0.3-0.9-0.9-0.9h-11.7c-1.1,0-1.7-0.5-1.7-1.6v-4.7
			c0-1,0.6-1.6,1.7-1.6h34.3c1.1,0,1.7,0.5,1.7,1.6v4.7c0,1-0.6,1.6-1.7,1.6h-11.7c-0.7,0-1,0.3-1,0.9v49.1
			C376.8,320.9,376.3,321.4,375.3,321.4z"/>
		<path class="st0" d="M406.5,321.4h-5.8c-1,0-1.6-0.5-1.6-1.6v-56.3c0-1,0.5-1.6,1.6-1.6h5.8c1,0,1.6,0.5,1.6,1.6v23.1
			c0,0.6,0.4,0.9,1.1,0.9h19.5c0.6,0,0.9-0.3,0.9-0.9v-23.1c0-1,0.5-1.6,1.6-1.6h5.9c1,0,1.6,0.5,1.6,1.6v56.3c0,1-0.5,1.6-1.6,1.6
			h-5.9c-1,0-1.6-0.5-1.6-1.6v-23.4c0-0.6-0.3-0.9-0.9-0.9h-19.5c-0.7,0-1.1,0.3-1.1,0.9v23.4C408.1,320.9,407.6,321.4,406.5,321.4z
			"/>
	</g>
</g>
</svg>
