<?xml version="1.0" encoding="utf-8"?>
<!-- Generator: Adobe Illustrator 26.3.1, SVG Export Plug-In . SVG Version: 6.00 Build 0)  -->
<svg version="1.1" id="Layer_1" xmlns="http://www.w3.org/2000/svg" xmlns:xlink="http://www.w3.org/1999/xlink" x="0px" y="0px"
	 viewBox="0 0 512 512" style="enable-background:new 0 0 512 512;" xml:space="preserve">
<style type="text/css">
	.st0{fill:#FFFFFF;stroke:#1D1D1B;stroke-width:0.6404;stroke-miterlimit:10;}
	.st1{display:none;}
	.st2{display:inline;}
	.st3{fill:#B93A4D;}
	.st4{fill:url(#SVGID_1_);}
</style>
<g>
	<g>
		<g>
			<path class="st0" d="M177.4,250.7h-6.8c-0.9,0-1.2-0.5-0.9-1.6l16.4-57.5c0.3-1.1,1.1-1.6,2.3-1.6h9.4c1.3,0,2,0.5,2.3,1.6
				l16.4,57.5c0.3,1.1-0.1,1.6-1,1.6h-6.7c-0.6,0-1-0.1-1.2-0.3c-0.2-0.2-0.4-0.6-0.5-1.3l-3.6-12.3h-20.8l-3.6,12.3
				C178.8,250.2,178.3,250.7,177.4,250.7z M192.9,199.1l-8.3,30.2h17.1l-8.4-30.2H192.9z"/>
		</g>
		<g>
			<path class="st0" d="M235.1,250.7h-5.9c-1.1,0-1.6-0.5-1.6-1.6v-57.5c0-1.1,0.5-1.6,1.6-1.6h22.1c4.6,0,8.2,1.3,10.8,3.9
				c2.6,2.6,3.9,6.2,3.9,10.8v7.9c0,7.2-3,11.8-9,13.7v0.4l10.5,22.1c0.7,1.3,0.3,1.9-1.2,1.9h-5.9c-1.5,0-2.5-0.5-2.9-1.6
				l-10.1-21.7h-9.5c-0.8,0-1.1,0.3-1.1,0.9v20.8C236.7,250.2,236.2,250.7,235.1,250.7z M237.7,219.9h12c4.7,0,7-2.3,7-6.9V205
				c0-4.7-2.3-7-7-7h-12c-0.7,0-1,0.3-1,0.9v19.9C236.7,219.5,237,219.9,237.7,219.9z"/>
		</g>
		<g>
			<path class="st0" d="M303.7,250.7h-10.9c-4.7,0-8.3-1.3-10.8-3.9c-2.5-2.6-3.8-6.2-3.8-10.8v-31.4c0-4.7,1.3-8.3,3.8-10.8
				c2.5-2.5,6.1-3.8,10.8-3.8h10.9c4.7,0,8.3,1.3,10.9,3.8c2.6,2.5,3.9,6.2,3.9,10.8v31.4c0,4.6-1.3,8.2-3.9,10.8
				C312,249.4,308.4,250.7,303.7,250.7z M294.1,242.7h8.2c4.6,0,6.9-2.3,6.9-7V205c0-4.7-2.3-7-6.9-7h-8.2c-4.5,0-6.8,2.3-6.8,7
				v30.7C287.3,240.4,289.6,242.7,294.1,242.7z"/>
		</g>
		<g>
			<path class="st0" d="M372.7,190h10.6c1.1,0,1.6,0.5,1.6,1.6v57.5c0,1.1-0.5,1.6-1.6,1.6h-5.9c-1.1,0-1.6-0.5-1.6-1.6v-47.7h-0.4
				L363.2,236c-0.4,1-1.1,1.5-2.1,1.5h-6c-0.9,0-1.6-0.5-2-1.5l-12.6-34.6h-0.4v47.8c0,0.6-0.1,1.1-0.3,1.3
				c-0.2,0.2-0.6,0.3-1.3,0.3h-5.8c-1.1,0-1.6-0.5-1.6-1.6v-57.5c0-1.1,0.5-1.6,1.6-1.6h10.6c0.7,0,1.2,0.3,1.5,1l12.9,36.4h0.5
				l13-36.4C371.4,190.4,371.9,190,372.7,190z"/>
		</g>
		<g>
			<path class="st0" d="M423.3,250.7h-10.9c-4.7,0-8.3-1.3-10.8-3.9c-2.5-2.6-3.8-6.2-3.8-10.8v-31.4c0-4.7,1.3-8.3,3.8-10.8
				c2.5-2.5,6.1-3.8,10.8-3.8h10.9c4.7,0,8.3,1.3,10.9,3.8c2.6,2.5,3.9,6.2,3.9,10.8v31.4c0,4.6-1.3,8.2-3.9,10.8
				C431.5,249.4,427.9,250.7,423.3,250.7z M413.6,242.7h8.2c4.6,0,6.9-2.3,6.9-7V205c0-4.7-2.3-7-6.9-7h-8.2c-4.5,0-6.8,2.3-6.8,7
				v30.7C406.8,240.4,409.1,242.7,413.6,242.7z"/>
		</g>
	</g>
	<g class="st1">
		<g class="st2">
			<path class="st3" d="M171.7,322h-1.3c-0.5,0-0.8-0.3-0.8-0.9V261c0-0.6,0.3-0.9,0.8-0.9h1.3c0.5,0,0.8,0.3,0.8,0.9v27.3
				c0,0.5,0.3,0.8,0.9,0.8h29.8c0.6,0,0.9-0.3,0.9-0.8V261c0-0.6,0.3-0.9,0.8-0.9h1.3c0.5,0,0.8,0.3,0.8,0.9v60.1
				c0,0.6-0.3,0.9-0.8,0.9h-1.3c-0.5,0-0.8-0.3-0.8-0.9v-28.5c0-0.5-0.3-0.8-0.9-0.8h-29.8c-0.6,0-0.9,0.3-0.9,0.8v28.5
				C172.5,321.7,172.2,322,171.7,322z"/>
		</g>
		<g class="st2">
			<path class="st3" d="M251.9,322h-29.2c-0.5,0-0.8-0.3-0.8-0.9V261c0-0.6,0.3-0.9,0.8-0.9h29.2c0.6,0,0.9,0.3,0.9,0.8v1.2
				c0,0.5-0.3,0.8-0.9,0.8h-26.2c-0.6,0-0.9,0.3-0.9,0.8v24.7c0,0.5,0.3,0.8,0.9,0.8h23.7c0.6,0,0.9,0.3,0.9,0.8v1.2
				c0,0.5-0.3,0.8-0.9,0.8h-23.7c-0.6,0-0.9,0.3-0.9,0.8v26c0,0.5,0.3,0.8,0.9,0.8h26.2c0.6,0,0.9,0.3,0.9,0.8v1.2
				C252.7,321.7,252.4,322,251.9,322z"/>
		</g>
		<g class="st2">
			<path class="st3" d="M266,322h-1.3c-0.6,0-0.8-0.3-0.6-0.9l20.2-60.1c0.2-0.6,0.5-0.9,1-0.9h2.3c0.4,0,0.8,0.3,1,0.9l20.2,60.1
				c0.2,0.6,0,0.9-0.6,0.9h-1.4c-0.4,0-0.8-0.3-1-0.9l-5.9-16.7H273l-5.9,16.7C266.8,321.7,266.5,322,266,322z M286.2,263.8
				L274,301.5h24.8l-12.2-37.7H286.2z"/>
		</g>
		<g class="st2">
			<path class="st3" d="M352,322h-30.3c-0.5,0-0.8-0.3-0.8-0.9V261c0-0.6,0.3-0.9,0.8-0.9h1.3c0.5,0,0.8,0.3,0.8,0.9v57.3
				c0,0.5,0.3,0.8,0.9,0.8H352c0.6,0,0.9,0.3,0.9,0.8v1.3C352.9,321.7,352.6,322,352,322z"/>
		</g>
		<g class="st2">
			<path class="st3" d="M371.6,322h-1.3c-0.5,0-0.8-0.3-0.8-0.9v-57.5c0-0.5-0.3-0.8-0.9-0.8h-14.8c-0.6,0-0.9-0.3-0.9-0.8v-1.2
				c0-0.5,0.3-0.8,0.9-0.8h34.2c0.6,0,0.9,0.3,0.9,0.8v1.2c0,0.5-0.3,0.8-0.9,0.8h-14.8c-0.6,0-0.9,0.3-0.9,0.8v57.5
				C372.4,321.7,372.1,322,371.6,322z"/>
		</g>
		<g class="st2">
			<path class="st3" d="M402.8,322h-1.3c-0.5,0-0.8-0.3-0.8-0.9V261c0-0.6,0.3-0.9,0.8-0.9h1.3c0.5,0,0.8,0.3,0.8,0.9v27.3
				c0,0.5,0.3,0.8,0.9,0.8h29.8c0.6,0,0.9-0.3,0.9-0.8V261c0-0.6,0.3-0.9,0.8-0.9h1.3c0.5,0,0.8,0.3,0.8,0.9v60.1
				c0,0.6-0.3,0.9-0.8,0.9h-1.3c-0.5,0-0.8-0.3-0.8-0.9v-28.5c0-0.5-0.3-0.8-0.9-0.8h-29.8c-0.6,0-0.9,0.3-0.9,0.8v28.5
				C403.6,321.7,403.3,322,402.8,322z"/>
		</g>
	</g>
	<linearGradient id="SVGID_1_" gradientUnits="userSpaceOnUse" x1="64.9578" y1="111.0668" x2="381.7394" y2="379.4673">
		<stop  offset="0" style="stop-color:#F15362"/>
		<stop  offset="1" style="stop-color:#B93A4D"/>
	</linearGradient>
	<path class="st4" d="M237.4,387.9l-1,0.6c-0.2,0.1-0.5,0.1-0.8,0l-44.1-25.4c0,0,0,0,0,0l-70.1-40.5c-0.2-0.1-0.4-0.4-0.4-0.7
		V190.1c0-0.3,0.1-0.5,0.4-0.7l11.9-6.8l102.3-59.1c0.2-0.1,0.5-0.1,0.8,0l98.7,57h32c-0.1-0.2-0.2-0.3-0.3-0.4l-130.4-75.3
		c-0.2-0.1-0.5-0.1-0.8,0l-114.5,66.1l-15.8,9.1c-0.2,0.1-0.4,0.4-0.4,0.7v150.5c0,0.3,0.1,0.5,0.4,0.7l130.4,75.3
		c0.1,0.1,0.3,0.1,0.4,0.1c0.1,0,0.3,0,0.4-0.1l130.4-75.3c0.2-0.1,0.3-0.2,0.3-0.4h-32L280.5,363c0,0,0,0,0,0L237.4,387.9"/>
	<polygon class="st0" points="152,182.6 121.1,182.6 121.1,151.7 104.9,151.7 104.9,182.6 74,182.6 74,198.8 104.9,198.8 
		104.9,229.7 121.1,229.7 121.1,198.8 152,198.8 	"/>
	<g>
		<path class="st0" d="M176.9,319.4h-5.8c-1,0-1.6-0.5-1.6-1.6v-56.1c0-1,0.5-1.6,1.6-1.6h5.8c1,0,1.6,0.5,1.6,1.6v23
			c0,0.6,0.4,0.9,1.1,0.9h19.4c0.6,0,0.9-0.3,0.9-0.9v-23c0-1,0.5-1.6,1.6-1.6h5.9c1,0,1.6,0.5,1.6,1.6v56.1c0,1-0.5,1.6-1.6,1.6
			h-5.9c-1,0-1.6-0.5-1.6-1.6v-23.3c0-0.6-0.3-0.9-0.9-0.9h-19.4c-0.7,0-1.1,0.3-1.1,0.9v23.3C178.5,318.9,178,319.4,176.9,319.4z"
			/>
		<path class="st0" d="M253.5,319.4H224c-1,0-1.6-0.5-1.6-1.6v-56.1c0-1,0.5-1.6,1.6-1.6h29.5c1,0,1.5,0.5,1.5,1.6v4.7
			c0,1-0.5,1.6-1.5,1.6h-21c-0.7,0-1.1,0.3-1.1,0.9v15.6c0,0.6,0.4,0.9,1.1,0.9h17.8c1.1,0,1.7,0.5,1.7,1.6v4.7c0,1-0.6,1.6-1.7,1.6
			h-17.8c-0.7,0-1.1,0.3-1.1,0.9v16.4c0,0.7,0.4,1,1.1,1h21c1,0,1.5,0.5,1.5,1.6v4.7C255,318.9,254.5,319.4,253.5,319.4z"/>
		<path class="st0" d="M269.9,319.4h-6.6c-0.9,0-1.2-0.5-0.9-1.6l16-56.1c0.3-1,1-1.6,2.2-1.6h9.2c1.2,0,2,0.5,2.2,1.6l16,56.1
			c0.2,1-0.1,1.6-1,1.6h-6.5c-0.6,0-0.9-0.1-1.2-0.3c-0.2-0.2-0.4-0.6-0.5-1.2l-3.5-12H275l-3.5,12
			C271.3,318.9,270.7,319.4,269.9,319.4z M285,269l-8.1,29.5h16.7l-8.2-29.5H285z"/>
		<path class="st0" d="M348.6,319.4h-29.8c-1,0-1.6-0.5-1.6-1.6v-56.1c0-1,0.5-1.6,1.6-1.6h5.8c1,0,1.6,0.5,1.6,1.6v48.7
			c0,0.6,0.4,0.9,1.1,0.9h21.4c1,0,1.6,0.6,1.6,1.7v4.8C350.1,318.9,349.6,319.4,348.6,319.4z"/>
		<path class="st0" d="M374.8,319.4H369c-1.1,0-1.7-0.5-1.7-1.6v-48.9c0-0.6-0.3-0.9-0.9-0.9h-11.6c-1.1,0-1.7-0.5-1.7-1.6v-4.7
			c0-1,0.6-1.6,1.7-1.6H389c1.1,0,1.7,0.5,1.7,1.6v4.7c0,1-0.6,1.6-1.7,1.6h-11.6c-0.7,0-1,0.3-1,0.9v48.9
			C376.4,318.9,375.8,319.4,374.8,319.4z"/>
		<path class="st0" d="M405.9,319.4h-5.8c-1,0-1.6-0.5-1.6-1.6v-56.1c0-1,0.5-1.6,1.6-1.6h5.8c1,0,1.6,0.5,1.6,1.6v23
			c0,0.6,0.4,0.9,1.1,0.9H428c0.6,0,0.9-0.3,0.9-0.9v-23c0-1,0.5-1.6,1.6-1.6h5.9c1,0,1.6,0.5,1.6,1.6v56.1c0,1-0.5,1.6-1.6,1.6
			h-5.9c-1,0-1.6-0.5-1.6-1.6v-23.3c0-0.6-0.3-0.9-0.9-0.9h-19.4c-0.7,0-1.1,0.3-1.1,0.9v23.3C407.5,318.9,407,319.4,405.9,319.4z"
			/>
	</g>
</g>
</svg>
