<svg xmlns="http://www.w3.org/2000/svg" width="32" height="32" viewBox="0 0 8.467 8.467"><g transform="translate(-7.153 -6.36)"><path style="line-height:normal;font-variant-ligatures:normal;font-variant-position:normal;font-variant-caps:normal;font-variant-numeric:normal;font-variant-alternates:normal;font-feature-settings:normal;text-indent:0;text-align:start;text-decoration-line:none;text-decoration-style:solid;text-decoration-color:#000;text-transform:none;text-orientation:mixed;shape-padding:0;isolation:auto;mix-blend-mode:normal" fill="#18b1a8" d="m 36.304688,27.035156 c -0.481716,0.0074 -0.918961,0.153261 -1.34375,0.347656 -0.849579,0.388791 -1.671926,1.023488 -2.427735,1.779297 -0.755809,0.75581 -1.431119,1.63081 -1.898437,2.525391 -0.467319,0.894581 -0.797193,1.84475 -0.464844,2.841797 a 1.0000085,1.0000085 0 0 0 0.05273,0.132812 c 4.494575,8.989146 9.200304,13.690975 18.189453,18.185547 a 1.0000085,1.0000085 0 0 0 0.132813,0.05273 c 0.997047,0.332333 1.945263,0.0025 2.839844,-0.464844 0.89458,-0.46732 1.76763,-1.140673 2.523437,-1.896485 0.755811,-0.755807 1.390505,-1.58011 1.779297,-2.429687 0.194381,-0.424792 0.340248,-0.862034 0.347656,-1.34375 0.0076,-0.481716 -0.169524,-1.03868 -0.560547,-1.429687 L 51.783203,41.636719 A 1.0000085,1.0000085 0 0 0 50.652344,41.4375 l -3.517578,1.638672 c -1.073243,-0.540423 -2.622058,-1.682604 -4.039063,-3.09961 -1.417005,-1.417005 -2.559201,-2.963859 -3.099609,-4.037109 l 1.638672,-3.521484 a 1.0000085,1.0000085 0 0 0 -0.199219,-1.13086 l -3.699219,-3.697265 c -0.39101,-0.391011 -0.949925,-0.562099 -1.43164,-0.554688 z" color="#000" font-family="sans-serif" font-weight="400" overflow="visible" transform="scale(.26458)"/><path style="line-height:normal;font-variant-ligatures:normal;font-variant-position:normal;font-variant-caps:normal;font-variant-numeric:normal;font-variant-alternates:normal;font-feature-settings:normal;text-indent:0;text-align:start;text-decoration-line:none;text-decoration-style:solid;text-decoration-color:#000;text-transform:none;text-orientation:mixed;shape-padding:0;isolation:auto;mix-blend-mode:normal" fill="#ff5757" d="m 48.033203,29.033203 a 1.0001,1.0001 0 0 0 -0.996094,1.003906 v 0.996094 h -1.003906 a 1.0001,1.0001 0 0 0 -0.996094,1.003906 v 4.001953 a 1.0001,1.0001 0 0 0 0.996094,0.996094 h 1.003906 v 1.003906 a 1.0001,1.0001 0 0 0 0.996094,0.996094 h 4.001953 a 1.0001,1.0001 0 0 0 1.003906,-0.996094 v -1.003906 h 0.996094 a 1.0001,1.0001 0 0 0 1.003906,-0.996094 v -4.001953 a 1.0001,1.0001 0 0 0 -1.003906,-1.003906 h -0.996094 v -0.996094 a 1.0001,1.0001 0 0 0 -1.003906,-1.003906 z" color="#000" font-family="sans-serif" font-weight="400" overflow="visible" transform="scale(.26458)"/></g><path style="line-height:normal;font-variant-ligatures:normal;font-variant-position:normal;font-variant-caps:normal;font-variant-numeric:normal;font-variant-alternates:normal;font-feature-settings:normal;text-indent:0;text-align:start;text-decoration-line:none;text-decoration-style:solid;text-decoration-color:#000;text-transform:none;text-orientation:mixed;shape-padding:0;isolation:auto;mix-blend-mode:normal" fill="#263238" d="M 9.2695312 3 C 8.7878157 3.0074109 8.3505707 3.1532612 7.9257812 3.3476562 C 7.0762028 3.7364468 6.253856 4.3711436 5.4980469 5.1269531 C 4.7422377 5.8827623 4.0669278 6.7577628 3.5996094 7.6523438 C 3.1322908 8.546925 2.8024167 9.4970941 3.1347656 10.494141 A 1.0000085 1.0000085 0 0 0 3.1875 10.626953 C 7.6820742 19.6161 12.385853 24.317926 21.375 28.8125 A 1.0000085 1.0000085 0 0 0 21.507812 28.865234 C 22.50486 29.197583 23.455027 28.867691 24.349609 28.400391 C 25.244191 27.933071 26.117238 27.259715 26.873047 26.503906 C 27.628856 25.748096 28.263553 24.923797 28.652344 24.074219 C 28.846739 23.64943 28.99259 23.212184 29 22.730469 C 29.0074 22.248752 28.830465 21.689838 28.439453 21.298828 L 24.748047 17.599609 A 1.0000085 1.0000085 0 0 0 23.617188 17.400391 L 20.097656 19.039062 C 19.024405 18.498658 17.475599 17.358412 16.058594 15.941406 C 14.641588 14.524401 13.501346 12.977547 12.960938 11.904297 L 14.599609 8.3828125 A 1.0000085 1.0000085 0 0 0 14.400391 7.2519531 L 10.701172 3.5546875 C 10.310162 3.1636772 9.7512464 2.9925891 9.2695312 3 z M 9.3164062 4.9980469 L 12.488281 8.1757812 L 10.908203 11.578125 A 1.0000085 1.0000085 0 0 0 10.900391 12.398438 C 11.576067 13.952556 13.017367 15.716586 14.650391 17.349609 C 16.283414 18.982633 18.047444 20.423906 19.601562 21.099609 A 1.0000085 1.0000085 0 0 0 20.421875 21.091797 L 23.824219 19.511719 L 27.003906 22.683594 C 27.002706 22.68828 27.000293 22.680697 27 22.701172 C 26.9987 22.782485 26.953379 22.983613 26.835938 23.240234 C 26.601047 23.753471 26.087143 24.455825 25.457031 25.085938 C 24.826918 25.716051 24.078813 26.287771 23.425781 26.628906 C 22.791118 26.960446 22.30272 26.992832 22.171875 26.960938 C 13.545709 22.628454 9.37153 18.456191 5.0390625 9.8300781 C 5.0071678 9.6992331 5.0395536 9.2088804 5.3710938 8.5742188 C 5.7122297 7.9211871 6.2839495 7.1750349 6.9140625 6.5449219 C 7.5441751 5.9148089 8.2465209 5.3989371 8.7597656 5.1640625 C 9.016388 5.046625 9.2175123 5.0032041 9.2988281 5.0019531 C 9.319162 5.0016406 9.3116063 4.9991898 9.3164062 4.9980469 z M 21.001953 4.9980469 A 1.0001 1.0001 0 0 0 19.998047 6.0019531 L 19.998047 6.9980469 L 19.001953 6.9980469 A 1.0001 1.0001 0 0 0 17.996094 8.0019531 L 17.996094 12.003906 A 1.0001 1.0001 0 0 0 19.001953 13 L 19.998047 13 L 19.998047 14.003906 A 1.0001 1.0001 0 0 0 21.001953 15 L 25.001953 15 A 1.0001 1.0001 0 0 0 25.998047 14.003906 L 25.998047 13 L 27.003906 13 A 1.0001 1.0001 0 0 0 28 12.003906 L 28 8.0019531 A 1.0001 1.0001 0 0 0 27.003906 6.9980469 L 25.998047 6.9980469 L 25.998047 6.0019531 A 1.0001 1.0001 0 0 0 25.001953 4.9980469 L 21.001953 4.9980469 z M 21.998047 6.9980469 L 23.998047 6.9980469 L 23.998047 8.0019531 A 1.0001 1.0001 0 0 0 25.001953 8.9980469 L 25.998047 8.9980469 L 25.998047 10.998047 L 25.001953 10.998047 A 1.0001 1.0001 0 0 0 23.998047 12.003906 L 23.998047 13 L 21.998047 13 L 21.998047 12.003906 A 1.0001 1.0001 0 0 0 21.001953 10.998047 L 19.998047 10.998047 L 19.998047 8.9980469 L 21.001953 8.9980469 A 1.0001 1.0001 0 0 0 21.998047 8.0019531 L 21.998047 6.9980469 z " color="#000" font-family="sans-serif" font-weight="400" overflow="visible" transform="scale(.26458)"/></svg>